<svg width="152" height="40" viewBox="0 0 152 40" fill="none" xmlns="http://www.w3.org/2000/svg">
<path d="M5.92001 26.616C5.92001 27.768 5.92001 29.064 5.92001 30.504C5.95201 31.944 6.00002 33.304 6.06402 34.584C6.16002 35.832 6.30401 36.888 6.49601 37.752C6.68801 38.584 6.97602 39 7.36001 39H0.640015C1.02401 39 1.31201 38.584 1.50401 37.752C1.69601 36.92 1.82401 35.896 1.88801 34.68C1.98401 33.432 2.03202 32.104 2.03202 30.696C2.06401 29.256 2.08001 27.96 2.08001 26.808V17.592L2.03202 17.784C2.03202 16.632 2.03202 15.336 2.03202 13.896C2.03202 12.456 1.98401 11.112 1.88801 9.86403C1.82401 8.58403 1.69601 7.52803 1.50401 6.69603C1.31201 5.83203 1.02401 5.40003 0.640015 5.40003H13.552C15.568 5.40003 17.296 5.60803 18.736 6.02403C20.176 6.44003 21.36 7.00003 22.288 7.70403C23.216 8.40803 23.888 9.22403 24.304 10.152C24.752 11.048 24.976 11.992 24.976 12.984C24.976 14.168 24.736 15.192 24.256 16.056C23.776 16.92 23.168 17.688 22.432 18.36C21.696 19 20.912 19.576 20.08 20.088C19.248 20.568 18.464 21.016 17.728 21.432C16.992 21.848 16.384 22.264 15.904 22.68C15.424 23.096 15.184 23.56 15.184 24.072C15.184 24.584 15.456 25.288 16 26.184C16.544 27.08 17.248 28.056 18.112 29.112C18.976 30.168 19.952 31.256 21.04 32.376C22.128 33.464 23.232 34.488 24.352 35.448C25.472 36.376 26.544 37.176 27.568 37.848C28.624 38.488 29.52 38.872 30.256 39H22.48C21.296 38.072 20.16 37.016 19.072 35.832C18.016 34.616 17.072 33.4 16.24 32.184C15.44 30.968 14.784 29.784 14.272 28.632C13.792 27.48 13.552 26.488 13.552 25.656C13.552 24.76 13.936 23.96 14.704 23.256C15.472 22.552 16.304 21.784 17.2 20.952C18.128 20.12 18.96 19.144 19.696 18.024C20.464 16.872 20.848 15.416 20.848 13.656C20.848 11.256 20.224 9.35203 18.976 7.94403C17.76 6.53603 15.952 5.83203 13.552 5.83203H5.92001V26.616Z" fill="black"/>
<path d="M55.045 26.76C55.045 28.904 54.693 30.776 53.989 32.376C53.317 33.976 52.405 35.32 51.253 36.408C50.133 37.464 48.837 38.264 47.365 38.808C45.925 39.32 44.453 39.576 42.949 39.576C41.413 39.576 39.909 39.32 38.437 38.808C36.997 38.264 35.701 37.464 34.549 36.408C33.429 35.32 32.517 33.976 31.813 32.376C31.141 30.776 30.805 28.904 30.805 26.76C30.805 24.616 31.141 22.744 31.813 21.144C32.517 19.544 33.429 18.216 34.549 17.16C35.701 16.072 36.997 15.272 38.437 14.76C39.909 14.216 41.397 13.944 42.901 13.944C44.437 13.944 45.925 14.216 47.365 14.76C48.837 15.272 50.133 16.072 51.253 17.16C52.405 18.216 53.317 19.544 53.989 21.144C54.693 22.744 55.045 24.616 55.045 26.76ZM34.837 26.136C34.837 28.28 35.077 30.168 35.557 31.8C36.069 33.4 36.725 34.744 37.525 35.832C38.357 36.92 39.285 37.752 40.309 38.328C41.333 38.872 42.373 39.144 43.429 39.144C44.389 39.144 45.333 38.904 46.261 38.424C47.189 37.944 48.005 37.224 48.709 36.264C49.413 35.272 49.973 34.04 50.389 32.568C50.837 31.096 51.061 29.368 51.061 27.384C51.061 25.24 50.805 23.368 50.293 21.768C49.813 20.136 49.157 18.776 48.325 17.688C47.525 16.6 46.613 15.784 45.589 15.24C44.565 14.664 43.525 14.376 42.469 14.376C41.509 14.376 40.565 14.616 39.637 15.096C38.709 15.576 37.893 16.312 37.189 17.304C36.485 18.264 35.909 19.48 35.461 20.952C35.045 22.424 34.837 24.152 34.837 26.136Z" fill="black"/>
<path d="M82.6053 26.424C82.6053 28.664 82.2053 30.616 81.4053 32.28C80.6373 33.912 79.6453 35.272 78.4293 36.36C77.2133 37.416 75.8373 38.2 74.3013 38.712C72.7973 39.224 71.3253 39.48 69.8853 39.48C68.4453 39.48 67.0853 39.24 65.8053 38.76C64.5253 38.28 63.4053 37.608 62.4453 36.744C61.5173 35.88 60.7813 34.84 60.2373 33.624C59.6933 32.376 59.4213 31 59.4213 29.496V0.504028L63.2613 3.38403V21.288C63.9013 18.984 65.1013 17.224 66.8613 16.008C68.6213 14.76 70.5253 14.136 72.5733 14.136C73.8213 14.136 75.0373 14.376 76.2213 14.856C77.4373 15.336 78.5093 16.088 79.4373 17.112C80.3973 18.104 81.1653 19.384 81.7413 20.952C82.3173 22.488 82.6053 24.312 82.6053 26.424ZM63.2613 28.296C63.2613 31.72 63.9493 34.344 65.3253 36.168C66.7013 37.992 68.5093 38.904 70.7493 38.904C71.6453 38.904 72.5413 38.664 73.4373 38.184C74.3653 37.672 75.1973 36.92 75.9333 35.928C76.6693 34.904 77.2613 33.64 77.7093 32.136C78.1893 30.6 78.4293 28.792 78.4293 26.712C78.4293 24.728 78.2053 23.032 77.7573 21.624C77.3413 20.216 76.7813 19.064 76.0773 18.168C75.3733 17.24 74.5733 16.568 73.6773 16.152C72.7813 15.704 71.8533 15.48 70.8933 15.48C69.9333 15.48 68.9893 15.688 68.0613 16.104C67.1653 16.52 66.3493 17.112 65.6133 17.88C64.9093 18.648 64.3333 19.592 63.8853 20.712C63.4693 21.8 63.2613 23.048 63.2613 24.456V28.296Z" fill="black"/>
<path d="M110.854 32.232C109.51 34.728 107.814 36.552 105.766 37.704C103.718 38.856 101.622 39.432 99.478 39.432C97.942 39.432 96.438 39.144 94.966 38.568C93.526 37.992 92.246 37.144 91.126 36.024C90.006 34.904 89.11 33.528 88.438 31.896C87.766 30.264 87.43 28.408 87.43 26.328C87.43 24.312 87.766 22.536 88.438 21C89.142 19.432 90.054 18.12 91.174 17.064C92.326 15.976 93.622 15.16 95.062 14.616C96.502 14.072 97.974 13.8 99.478 13.8C101.014 13.8 102.39 14.088 103.606 14.664C104.854 15.208 105.91 15.912 106.774 16.776C107.638 17.608 108.294 18.52 108.742 19.512C109.222 20.504 109.462 21.448 109.462 22.344C109.462 22.728 109.366 22.984 109.174 23.112C109.014 23.24 108.758 23.352 108.406 23.448L91.702 28.536C91.99 29.976 92.47 31.256 93.142 32.376C93.814 33.496 94.582 34.44 95.446 35.208C96.342 35.944 97.318 36.52 98.374 36.936C99.462 37.32 100.566 37.512 101.686 37.512C103.318 37.512 104.918 37.08 106.486 36.216C108.086 35.32 109.446 33.928 110.566 32.04L110.854 32.232ZM91.366 25.08C91.366 25.624 91.382 26.136 91.414 26.616C91.446 27.096 91.51 27.56 91.606 28.008L103.702 24.408C104.566 24.152 105.126 23.896 105.382 23.64C105.638 23.352 105.766 22.936 105.766 22.392C105.766 19.48 105.142 17.4 103.894 16.152C102.678 14.872 101.206 14.232 99.478 14.232C96.886 14.232 94.886 15.192 93.478 17.112C92.07 19.032 91.366 21.688 91.366 25.08Z" fill="black"/>
<path d="M120.819 29.016C120.819 30.168 120.819 31.336 120.819 32.52C120.851 33.704 120.931 34.776 121.059 35.736C121.187 36.696 121.379 37.48 121.635 38.088C121.923 38.696 122.323 39 122.835 39H120.819C120.275 39 119.763 38.936 119.283 38.808C118.835 38.68 118.435 38.44 118.083 38.088C117.731 37.704 117.443 37.192 117.219 36.552C117.027 35.88 116.931 35.032 116.931 34.008V14.856H114.243V14.472H116.931V7.56003L120.819 10.44V14.472H124.275V14.856H120.819V29.016Z" fill="black"/>
<path d="M151.889 26.76C151.889 28.904 151.537 30.776 150.833 32.376C150.161 33.976 149.249 35.32 148.097 36.408C146.977 37.464 145.681 38.264 144.209 38.808C142.769 39.32 141.297 39.576 139.793 39.576C138.257 39.576 136.753 39.32 135.281 38.808C133.841 38.264 132.545 37.464 131.393 36.408C130.273 35.32 129.361 33.976 128.657 32.376C127.985 30.776 127.649 28.904 127.649 26.76C127.649 24.616 127.985 22.744 128.657 21.144C129.361 19.544 130.273 18.216 131.393 17.16C132.545 16.072 133.841 15.272 135.281 14.76C136.753 14.216 138.241 13.944 139.745 13.944C141.281 13.944 142.769 14.216 144.209 14.76C145.681 15.272 146.977 16.072 148.097 17.16C149.249 18.216 150.161 19.544 150.833 21.144C151.537 22.744 151.889 24.616 151.889 26.76ZM131.681 26.136C131.681 28.28 131.921 30.168 132.401 31.8C132.913 33.4 133.569 34.744 134.369 35.832C135.201 36.92 136.129 37.752 137.153 38.328C138.177 38.872 139.217 39.144 140.273 39.144C141.233 39.144 142.177 38.904 143.105 38.424C144.033 37.944 144.849 37.224 145.553 36.264C146.257 35.272 146.817 34.04 147.233 32.568C147.681 31.096 147.905 29.368 147.905 27.384C147.905 25.24 147.649 23.368 147.137 21.768C146.657 20.136 146.001 18.776 145.169 17.688C144.369 16.6 143.457 15.784 142.433 15.24C141.409 14.664 140.369 14.376 139.313 14.376C138.353 14.376 137.409 14.616 136.481 15.096C135.553 15.576 134.737 16.312 134.033 17.304C133.329 18.264 132.753 19.48 132.305 20.952C131.889 22.424 131.681 24.152 131.681 26.136Z" fill="black"/>
</svg>
